<mxfile host="65bd71144e">
    <diagram name="PÃ¡gina-1" id="h4RyZ4rFJXlUaRI9Djhv">
        <mxGraphModel dx="1529" dy="433" grid="1" gridSize="10" guides="1" tooltips="1" connect="1" arrows="1" fold="1" page="1" pageScale="1" pageWidth="827" pageHeight="1169" math="0" shadow="0">
            <root>
                <mxCell id="0"/>
                <mxCell id="1" parent="0"/>
                <mxCell id="CNnA7Gmpr0wEHoK6A7KQ-145" value="" style="rounded=0;whiteSpace=wrap;html=1;fontFamily=Helvetica;fontSize=11;fontColor=default;labelBackgroundColor=default;fillColor=none;shadow=1;" parent="1" vertex="1">
                    <mxGeometry x="360" y="530" width="610" height="180" as="geometry"/>
                </mxCell>
                <mxCell id="CNnA7Gmpr0wEHoK6A7KQ-61" value="" style="rounded=0;whiteSpace=wrap;html=1;fontFamily=Helvetica;fontSize=11;fontColor=default;labelBackgroundColor=default;fillColor=none;" parent="1" vertex="1">
                    <mxGeometry x="20" y="552" width="140" height="84" as="geometry"/>
                </mxCell>
                <mxCell id="CNnA7Gmpr0wEHoK6A7KQ-79" value="" style="rounded=0;whiteSpace=wrap;html=1;fontFamily=Helvetica;fontSize=11;fontColor=default;labelBackgroundColor=default;fillColor=none;" parent="1" vertex="1">
                    <mxGeometry x="365" y="899" width="140" height="84" as="geometry"/>
                </mxCell>
                <mxCell id="GuARF0NrUYKqCSSE0C8I-60" style="edgeStyle=orthogonalEdgeStyle;shape=connector;rounded=0;orthogonalLoop=1;jettySize=auto;html=1;exitX=0.5;exitY=0;exitDx=0;exitDy=0;entryX=0;entryY=0.5;entryDx=0;entryDy=0;strokeColor=default;align=center;verticalAlign=middle;fontFamily=Helvetica;fontSize=11;fontColor=default;labelBackgroundColor=default;endArrow=none;endFill=0;" parent="1" source="GuARF0NrUYKqCSSE0C8I-54" target="GuARF0NrUYKqCSSE0C8I-58" edge="1">
                    <mxGeometry relative="1" as="geometry"/>
                </mxCell>
                <mxCell id="GuARF0NrUYKqCSSE0C8I-54" value="" style="rounded=0;whiteSpace=wrap;html=1;fontFamily=Helvetica;fontSize=11;fontColor=default;labelBackgroundColor=default;fillColor=none;shadow=1;" parent="1" vertex="1">
                    <mxGeometry x="80" y="160" width="710" height="241" as="geometry"/>
                </mxCell>
                <mxCell id="GuARF0NrUYKqCSSE0C8I-18" style="edgeStyle=orthogonalEdgeStyle;shape=connector;rounded=0;orthogonalLoop=1;jettySize=auto;html=1;exitX=0.75;exitY=1;exitDx=0;exitDy=0;entryX=0;entryY=0.5;entryDx=0;entryDy=0;strokeColor=default;align=center;verticalAlign=middle;fontFamily=Helvetica;fontSize=11;fontColor=default;labelBackgroundColor=default;endArrow=none;endFill=0;" parent="1" source="GuARF0NrUYKqCSSE0C8I-1" target="GuARF0NrUYKqCSSE0C8I-3" edge="1">
                    <mxGeometry relative="1" as="geometry"/>
                </mxCell>
                <mxCell id="GuARF0NrUYKqCSSE0C8I-19" style="edgeStyle=orthogonalEdgeStyle;shape=connector;rounded=0;orthogonalLoop=1;jettySize=auto;html=1;exitX=0.75;exitY=1;exitDx=0;exitDy=0;entryX=0;entryY=0.5;entryDx=0;entryDy=0;strokeColor=default;align=center;verticalAlign=middle;fontFamily=Helvetica;fontSize=11;fontColor=default;labelBackgroundColor=default;endArrow=none;endFill=0;" parent="1" source="GuARF0NrUYKqCSSE0C8I-1" target="GuARF0NrUYKqCSSE0C8I-4" edge="1">
                    <mxGeometry relative="1" as="geometry"/>
                </mxCell>
                <mxCell id="GuARF0NrUYKqCSSE0C8I-20" style="edgeStyle=orthogonalEdgeStyle;shape=connector;rounded=0;orthogonalLoop=1;jettySize=auto;html=1;exitX=0.75;exitY=1;exitDx=0;exitDy=0;entryX=0;entryY=0.5;entryDx=0;entryDy=0;strokeColor=default;align=center;verticalAlign=middle;fontFamily=Helvetica;fontSize=11;fontColor=default;labelBackgroundColor=default;endArrow=none;endFill=0;" parent="1" source="GuARF0NrUYKqCSSE0C8I-1" target="GuARF0NrUYKqCSSE0C8I-5" edge="1">
                    <mxGeometry relative="1" as="geometry"/>
                </mxCell>
                <mxCell id="GuARF0NrUYKqCSSE0C8I-21" style="edgeStyle=orthogonalEdgeStyle;shape=connector;rounded=0;orthogonalLoop=1;jettySize=auto;html=1;exitX=0.75;exitY=1;exitDx=0;exitDy=0;entryX=0;entryY=0.5;entryDx=0;entryDy=0;strokeColor=default;align=center;verticalAlign=middle;fontFamily=Helvetica;fontSize=11;fontColor=default;labelBackgroundColor=default;endArrow=none;endFill=0;" parent="1" source="GuARF0NrUYKqCSSE0C8I-1" target="GuARF0NrUYKqCSSE0C8I-6" edge="1">
                    <mxGeometry relative="1" as="geometry"/>
                </mxCell>
                <mxCell id="GuARF0NrUYKqCSSE0C8I-51" value="" style="edgeStyle=orthogonalEdgeStyle;shape=connector;rounded=0;orthogonalLoop=1;jettySize=auto;html=1;strokeColor=default;align=center;verticalAlign=middle;fontFamily=Helvetica;fontSize=11;fontColor=default;labelBackgroundColor=default;endArrow=none;endFill=0;" parent="1" source="GuARF0NrUYKqCSSE0C8I-1" target="GuARF0NrUYKqCSSE0C8I-50" edge="1">
                    <mxGeometry relative="1" as="geometry"/>
                </mxCell>
                <mxCell id="GuARF0NrUYKqCSSE0C8I-59" value="" style="edgeStyle=orthogonalEdgeStyle;shape=connector;rounded=0;orthogonalLoop=1;jettySize=auto;html=1;strokeColor=default;align=center;verticalAlign=middle;fontFamily=Helvetica;fontSize=11;fontColor=default;labelBackgroundColor=default;endArrow=none;endFill=0;" parent="1" source="GuARF0NrUYKqCSSE0C8I-1" target="GuARF0NrUYKqCSSE0C8I-58" edge="1">
                    <mxGeometry relative="1" as="geometry"/>
                </mxCell>
                <mxCell id="GuARF0NrUYKqCSSE0C8I-1" value="JUGADOR" style="rounded=0;whiteSpace=wrap;html=1;" parent="1" vertex="1">
                    <mxGeometry x="557" y="209" width="120" height="60" as="geometry"/>
                </mxCell>
                <mxCell id="GuARF0NrUYKqCSSE0C8I-16" style="edgeStyle=orthogonalEdgeStyle;shape=connector;rounded=0;orthogonalLoop=1;jettySize=auto;html=1;exitX=0;exitY=0.5;exitDx=0;exitDy=0;entryX=0.75;entryY=1;entryDx=0;entryDy=0;strokeColor=default;align=center;verticalAlign=middle;fontFamily=Helvetica;fontSize=11;fontColor=default;labelBackgroundColor=default;endArrow=none;endFill=0;" parent="1" source="GuARF0NrUYKqCSSE0C8I-2" target="GuARF0NrUYKqCSSE0C8I-1" edge="1">
                    <mxGeometry relative="1" as="geometry"/>
                </mxCell>
                <mxCell id="GuARF0NrUYKqCSSE0C8I-2" value="NombreJug" style="text;html=1;align=center;verticalAlign=middle;whiteSpace=wrap;rounded=0;" parent="1" vertex="1">
                    <mxGeometry x="667" y="270" width="76" height="30" as="geometry"/>
                </mxCell>
                <mxCell id="GuARF0NrUYKqCSSE0C8I-3" value="&lt;u&gt;Alias&lt;/u&gt;" style="text;html=1;align=center;verticalAlign=middle;whiteSpace=wrap;rounded=0;" parent="1" vertex="1">
                    <mxGeometry x="667" y="290" width="46" height="30" as="geometry"/>
                </mxCell>
                <mxCell id="GuARF0NrUYKqCSSE0C8I-4" value="Correo" style="text;html=1;align=center;verticalAlign=middle;whiteSpace=wrap;rounded=0;" parent="1" vertex="1">
                    <mxGeometry x="667" y="310" width="56" height="30" as="geometry"/>
                </mxCell>
                <mxCell id="GuARF0NrUYKqCSSE0C8I-5" value="FechaRegistro" style="text;html=1;align=center;verticalAlign=middle;whiteSpace=wrap;rounded=0;" parent="1" vertex="1">
                    <mxGeometry x="667" y="330" width="96" height="30" as="geometry"/>
                </mxCell>
                <mxCell id="GuARF0NrUYKqCSSE0C8I-6" value="CantMedallas" style="text;html=1;align=center;verticalAlign=middle;whiteSpace=wrap;rounded=0;" parent="1" vertex="1">
                    <mxGeometry x="667" y="350" width="86" height="30" as="geometry"/>
                </mxCell>
                <mxCell id="GuARF0NrUYKqCSSE0C8I-23" style="edgeStyle=orthogonalEdgeStyle;shape=connector;rounded=0;orthogonalLoop=1;jettySize=auto;html=1;exitX=0.75;exitY=1;exitDx=0;exitDy=0;entryX=0;entryY=0.5;entryDx=0;entryDy=0;strokeColor=default;align=center;verticalAlign=middle;fontFamily=Helvetica;fontSize=11;fontColor=default;labelBackgroundColor=default;endArrow=none;endFill=0;" parent="1" source="GuARF0NrUYKqCSSE0C8I-27" target="GuARF0NrUYKqCSSE0C8I-30" edge="1">
                    <mxGeometry relative="1" as="geometry"/>
                </mxCell>
                <mxCell id="GuARF0NrUYKqCSSE0C8I-25" style="edgeStyle=orthogonalEdgeStyle;shape=connector;rounded=0;orthogonalLoop=1;jettySize=auto;html=1;exitX=0.75;exitY=1;exitDx=0;exitDy=0;entryX=0;entryY=0.5;entryDx=0;entryDy=0;strokeColor=default;align=center;verticalAlign=middle;fontFamily=Helvetica;fontSize=11;fontColor=default;labelBackgroundColor=default;endArrow=none;endFill=0;" parent="1" source="GuARF0NrUYKqCSSE0C8I-27" target="GuARF0NrUYKqCSSE0C8I-32" edge="1">
                    <mxGeometry relative="1" as="geometry"/>
                </mxCell>
                <mxCell id="GuARF0NrUYKqCSSE0C8I-53" style="edgeStyle=orthogonalEdgeStyle;shape=connector;rounded=0;orthogonalLoop=1;jettySize=auto;html=1;exitX=1;exitY=0.5;exitDx=0;exitDy=0;entryX=0;entryY=0.5;entryDx=0;entryDy=0;strokeColor=default;align=center;verticalAlign=middle;fontFamily=Helvetica;fontSize=11;fontColor=default;labelBackgroundColor=default;endArrow=none;endFill=0;" parent="1" source="GuARF0NrUYKqCSSE0C8I-27" target="GuARF0NrUYKqCSSE0C8I-50" edge="1">
                    <mxGeometry relative="1" as="geometry"/>
                </mxCell>
                <mxCell id="GuARF0NrUYKqCSSE0C8I-27" value="PARTIDA" style="rounded=0;whiteSpace=wrap;html=1;" parent="1" vertex="1">
                    <mxGeometry x="130" y="209" width="120" height="60" as="geometry"/>
                </mxCell>
                <mxCell id="GuARF0NrUYKqCSSE0C8I-28" style="edgeStyle=orthogonalEdgeStyle;shape=connector;rounded=0;orthogonalLoop=1;jettySize=auto;html=1;exitX=0;exitY=0.5;exitDx=0;exitDy=0;entryX=0.75;entryY=1;entryDx=0;entryDy=0;strokeColor=default;align=center;verticalAlign=middle;fontFamily=Helvetica;fontSize=11;fontColor=default;labelBackgroundColor=default;endArrow=none;endFill=0;" parent="1" source="GuARF0NrUYKqCSSE0C8I-29" target="GuARF0NrUYKqCSSE0C8I-27" edge="1">
                    <mxGeometry relative="1" as="geometry"/>
                </mxCell>
                <mxCell id="GuARF0NrUYKqCSSE0C8I-29" value="NombrePart" style="text;html=1;align=center;verticalAlign=middle;whiteSpace=wrap;rounded=0;" parent="1" vertex="1">
                    <mxGeometry x="240" y="270" width="80" height="30" as="geometry"/>
                </mxCell>
                <mxCell id="GuARF0NrUYKqCSSE0C8I-30" value="&lt;u&gt;Codigo&lt;/u&gt;" style="text;html=1;align=center;verticalAlign=middle;whiteSpace=wrap;rounded=0;" parent="1" vertex="1">
                    <mxGeometry x="240" y="290" width="50" height="30" as="geometry"/>
                </mxCell>
                <mxCell id="GuARF0NrUYKqCSSE0C8I-32" value="FechaCreacion" style="text;html=1;align=center;verticalAlign=middle;whiteSpace=wrap;rounded=0;" parent="1" vertex="1">
                    <mxGeometry x="240" y="310" width="100" height="30" as="geometry"/>
                </mxCell>
                <mxCell id="GuARF0NrUYKqCSSE0C8I-34" style="edgeStyle=orthogonalEdgeStyle;shape=connector;rounded=0;orthogonalLoop=1;jettySize=auto;html=1;exitX=0.75;exitY=1;exitDx=0;exitDy=0;entryX=0;entryY=0.5;entryDx=0;entryDy=0;strokeColor=default;align=center;verticalAlign=middle;fontFamily=Helvetica;fontSize=11;fontColor=default;labelBackgroundColor=default;endArrow=none;endFill=0;" parent="1" source="GuARF0NrUYKqCSSE0C8I-38" target="GuARF0NrUYKqCSSE0C8I-41" edge="1">
                    <mxGeometry relative="1" as="geometry"/>
                </mxCell>
                <mxCell id="GuARF0NrUYKqCSSE0C8I-35" style="edgeStyle=orthogonalEdgeStyle;shape=connector;rounded=0;orthogonalLoop=1;jettySize=auto;html=1;exitX=0.75;exitY=1;exitDx=0;exitDy=0;entryX=0;entryY=0.5;entryDx=0;entryDy=0;strokeColor=default;align=center;verticalAlign=middle;fontFamily=Helvetica;fontSize=11;fontColor=default;labelBackgroundColor=default;endArrow=none;endFill=0;" parent="1" source="GuARF0NrUYKqCSSE0C8I-38" target="GuARF0NrUYKqCSSE0C8I-42" edge="1">
                    <mxGeometry relative="1" as="geometry"/>
                </mxCell>
                <mxCell id="GuARF0NrUYKqCSSE0C8I-36" style="edgeStyle=orthogonalEdgeStyle;shape=connector;rounded=0;orthogonalLoop=1;jettySize=auto;html=1;exitX=0.75;exitY=1;exitDx=0;exitDy=0;entryX=0;entryY=0.5;entryDx=0;entryDy=0;strokeColor=default;align=center;verticalAlign=middle;fontFamily=Helvetica;fontSize=11;fontColor=default;labelBackgroundColor=default;endArrow=none;endFill=0;" parent="1" source="GuARF0NrUYKqCSSE0C8I-38" target="GuARF0NrUYKqCSSE0C8I-43" edge="1">
                    <mxGeometry relative="1" as="geometry"/>
                </mxCell>
                <mxCell id="GuARF0NrUYKqCSSE0C8I-47" value="" style="edgeStyle=orthogonalEdgeStyle;shape=connector;rounded=0;orthogonalLoop=1;jettySize=auto;html=1;strokeColor=default;align=center;verticalAlign=middle;fontFamily=Helvetica;fontSize=11;fontColor=default;labelBackgroundColor=default;endArrow=none;endFill=0;" parent="1" source="GuARF0NrUYKqCSSE0C8I-38" target="GuARF0NrUYKqCSSE0C8I-45" edge="1">
                    <mxGeometry relative="1" as="geometry"/>
                </mxCell>
                <mxCell id="GuARF0NrUYKqCSSE0C8I-88" value="" style="edgeStyle=orthogonalEdgeStyle;shape=connector;rounded=0;orthogonalLoop=1;jettySize=auto;html=1;strokeColor=default;align=center;verticalAlign=middle;fontFamily=Helvetica;fontSize=11;fontColor=default;labelBackgroundColor=default;endArrow=none;endFill=0;" parent="1" source="GuARF0NrUYKqCSSE0C8I-38" target="GuARF0NrUYKqCSSE0C8I-87" edge="1">
                    <mxGeometry relative="1" as="geometry"/>
                </mxCell>
                <mxCell id="CNnA7Gmpr0wEHoK6A7KQ-91" style="edgeStyle=orthogonalEdgeStyle;shape=connector;rounded=0;orthogonalLoop=1;jettySize=auto;html=1;exitX=1;exitY=0.5;exitDx=0;exitDy=0;entryX=0;entryY=0.5;entryDx=0;entryDy=0;strokeColor=default;align=center;verticalAlign=middle;fontFamily=Helvetica;fontSize=11;fontColor=default;labelBackgroundColor=default;endArrow=none;endFill=0;" parent="1" source="GuARF0NrUYKqCSSE0C8I-38" target="CNnA7Gmpr0wEHoK6A7KQ-89" edge="1">
                    <mxGeometry relative="1" as="geometry"/>
                </mxCell>
                <mxCell id="GuARF0NrUYKqCSSE0C8I-38" value="PAIS" style="rounded=0;whiteSpace=wrap;html=1;" parent="1" vertex="1">
                    <mxGeometry x="375" y="565" width="120" height="60" as="geometry"/>
                </mxCell>
                <mxCell id="GuARF0NrUYKqCSSE0C8I-39" style="edgeStyle=orthogonalEdgeStyle;shape=connector;rounded=0;orthogonalLoop=1;jettySize=auto;html=1;exitX=0;exitY=0.5;exitDx=0;exitDy=0;entryX=0.75;entryY=1;entryDx=0;entryDy=0;strokeColor=default;align=center;verticalAlign=middle;fontFamily=Helvetica;fontSize=11;fontColor=default;labelBackgroundColor=default;endArrow=none;endFill=0;" parent="1" source="GuARF0NrUYKqCSSE0C8I-40" target="GuARF0NrUYKqCSSE0C8I-38" edge="1">
                    <mxGeometry relative="1" as="geometry"/>
                </mxCell>
                <mxCell id="GuARF0NrUYKqCSSE0C8I-40" value="NombrePais" style="text;html=1;align=center;verticalAlign=middle;whiteSpace=wrap;rounded=0;" parent="1" vertex="1">
                    <mxGeometry x="485" y="626" width="76" height="30" as="geometry"/>
                </mxCell>
                <mxCell id="GuARF0NrUYKqCSSE0C8I-41" value="&lt;u&gt;Capital&lt;/u&gt;" style="text;html=1;align=center;verticalAlign=middle;whiteSpace=wrap;rounded=0;" parent="1" vertex="1">
                    <mxGeometry x="485" y="646" width="46" height="30" as="geometry"/>
                </mxCell>
                <mxCell id="GuARF0NrUYKqCSSE0C8I-42" value="KilometrosCuadrados" style="text;html=1;align=center;verticalAlign=middle;whiteSpace=wrap;rounded=0;" parent="1" vertex="1">
                    <mxGeometry x="485" y="666" width="130" height="30" as="geometry"/>
                </mxCell>
                <mxCell id="GuARF0NrUYKqCSSE0C8I-43" value="PBN" style="text;html=1;align=center;verticalAlign=middle;whiteSpace=wrap;rounded=0;" parent="1" vertex="1">
                    <mxGeometry x="485" y="686" width="40" height="30" as="geometry"/>
                </mxCell>
                <mxCell id="GuARF0NrUYKqCSSE0C8I-45" value="controla" style="rhombus;whiteSpace=wrap;html=1;rounded=0;" parent="1" vertex="1">
                    <mxGeometry x="395" y="440" width="80" height="80" as="geometry"/>
                </mxCell>
                <mxCell id="GuARF0NrUYKqCSSE0C8I-50" value="crea" style="rhombus;whiteSpace=wrap;html=1;rounded=0;" parent="1" vertex="1">
                    <mxGeometry x="377" y="199" width="80" height="80" as="geometry"/>
                </mxCell>
                <mxCell id="GuARF0NrUYKqCSSE0C8I-55" value="" style="edgeStyle=orthogonalEdgeStyle;shape=connector;rounded=0;orthogonalLoop=1;jettySize=auto;html=1;strokeColor=default;align=center;verticalAlign=middle;fontFamily=Helvetica;fontSize=11;fontColor=default;labelBackgroundColor=default;endArrow=none;endFill=0;" parent="1" source="GuARF0NrUYKqCSSE0C8I-54" target="GuARF0NrUYKqCSSE0C8I-45" edge="1">
                    <mxGeometry relative="1" as="geometry"/>
                </mxCell>
                <mxCell id="GuARF0NrUYKqCSSE0C8I-58" value="invita" style="rhombus;whiteSpace=wrap;html=1;rounded=0;" parent="1" vertex="1">
                    <mxGeometry x="577" y="59" width="80" height="80" as="geometry"/>
                </mxCell>
                <mxCell id="GuARF0NrUYKqCSSE0C8I-61" value="(1,1)" style="text;html=1;align=center;verticalAlign=middle;whiteSpace=wrap;rounded=0;fontFamily=Helvetica;fontSize=11;fontColor=default;labelBackgroundColor=default;" parent="1" vertex="1">
                    <mxGeometry x="435" y="535" width="60" height="30" as="geometry"/>
                </mxCell>
                <mxCell id="GuARF0NrUYKqCSSE0C8I-62" value="(0,N)" style="text;html=1;align=center;verticalAlign=middle;whiteSpace=wrap;rounded=0;fontFamily=Helvetica;fontSize=11;fontColor=default;labelBackgroundColor=default;" parent="1" vertex="1">
                    <mxGeometry x="435" y="401" width="60" height="30" as="geometry"/>
                </mxCell>
                <mxCell id="GuARF0NrUYKqCSSE0C8I-63" value="(0,N&lt;span style=&quot;color: rgba(0, 0, 0, 0); font-family: monospace; font-size: 0px; text-align: start; text-wrap-mode: nowrap; background-color: rgb(27, 29, 30);&quot;&gt;%3CmxGraphModel%3E%3Croot%3E%3CmxCell%20id%3D%220%22%2F%3E%3CmxCell%20id%3D%221%22%20parent%3D%220%22%2F%3E%3CmxCell%20id%3D%222%22%20value%3D%22(0%2CN)%22%20style%3D%22text%3Bhtml%3D1%3Balign%3Dcenter%3BverticalAlign%3Dmiddle%3BwhiteSpace%3Dwrap%3Brounded%3D0%3BfontFamily%3DHelvetica%3BfontSize%3D11%3BfontColor%3Ddefault%3BlabelBackgroundColor%3Ddefault%3B%22%20vertex%3D%221%22%20parent%3D%221%22%3E%3CmxGeometry%20x%3D%22435%22%20y%3D%22401%22%20width%3D%2260%22%20height%3D%2230%22%20as%3D%22geometry%22%2F%3E%3C%2FmxCell%3E%3C%2Froot%3E%3C%2FmxGraphModel%3E&lt;/span&gt;)" style="text;html=1;align=center;verticalAlign=middle;whiteSpace=wrap;rounded=0;fontFamily=Helvetica;fontSize=11;fontColor=default;labelBackgroundColor=default;" parent="1" vertex="1">
                    <mxGeometry x="607" y="179" width="60" height="30" as="geometry"/>
                </mxCell>
                <mxCell id="GuARF0NrUYKqCSSE0C8I-64" value="(0,1&lt;span style=&quot;color: rgba(0, 0, 0, 0); font-family: monospace; font-size: 0px; text-align: start; text-wrap-mode: nowrap; background-color: rgb(27, 29, 30);&quot;&gt;%3CmxGraphModel%3E%3Croot%3E%3CmxCell%20id%3D%220%22%2F%3E%3CmxCell%20id%3D%221%22%20parent%3D%220%22%2F%3E%3CmxCell%20id%3D%222%22%20value%3D%22(0%2CN)%22%20style%3D%22text%3Bhtml%3D1%3Balign%3Dcenter%3BverticalAlign%3Dmiddle%3BwhiteSpace%3Dwrap%3Brounded%3D0%3BfontFamily%3DHelvetica%3BfontSize%3D11%3BfontColor%3Ddefault%3BlabelBackgroundColor%3Ddefault%3B%22%20vertex%3D%221%22%20parent%3D%221%22%3E%3CmxGeometry%20x%3D%22435%22%20y%3D%22401%22%20width%3D%2260%22%20height%3D%2230%22%20as%3D%22geometry%22%2F%3E%3C%2FmxCell%3E%3C%2Froot%3E%3C%2FmxGraphModel%3E&lt;/span&gt;)" style="text;html=1;align=center;verticalAlign=middle;whiteSpace=wrap;rounded=0;fontFamily=Helvetica;fontSize=11;fontColor=default;labelBackgroundColor=default;" parent="1" vertex="1">
                    <mxGeometry x="435" y="130" width="60" height="30" as="geometry"/>
                </mxCell>
                <mxCell id="GuARF0NrUYKqCSSE0C8I-65" value="(1,1&lt;span style=&quot;color: rgba(0, 0, 0, 0); font-family: monospace; font-size: 0px; text-align: start; text-wrap-mode: nowrap; background-color: rgb(27, 29, 30);&quot;&gt;%3CmxGraphModel%3E%3Croot%3E%3CmxCell%20id%3D%220%22%2F%3E%3CmxCell%20id%3D%221%22%20parent%3D%220%22%2F%3E%3CmxCell%20id%3D%222%22%20value%3D%22(0%2CN)%22%20style%3D%22text%3Bhtml%3D1%3Balign%3Dcenter%3BverticalAlign%3Dmiddle%3BwhiteSpace%3Dwrap%3Brounded%3D0%3BfontFamily%3DHelvetica%3BfontSize%3D11%3BfontColor%3Ddefault%3BlabelBackgroundColor%3Ddefault%3B%22%20vertex%3D%221%22%20parent%3D%221%22%3E%3CmxGeometry%20x%3D%22435%22%20y%3D%22401%22%20width%3D%2260%22%20height%3D%2230%22%20as%3D%22geometry%22%2F%3E%3C%2FmxCell%3E%3C%2Froot%3E%3C%2FmxGraphModel%3E&lt;/span&gt;)" style="text;html=1;align=center;verticalAlign=middle;whiteSpace=wrap;rounded=0;fontFamily=Helvetica;fontSize=11;fontColor=default;labelBackgroundColor=default;" parent="1" vertex="1">
                    <mxGeometry x="497" y="209" width="60" height="30" as="geometry"/>
                </mxCell>
                <mxCell id="GuARF0NrUYKqCSSE0C8I-66" value="(0,N&lt;span style=&quot;color: rgba(0, 0, 0, 0); font-family: monospace; font-size: 0px; text-align: start; text-wrap-mode: nowrap; background-color: rgb(27, 29, 30);&quot;&gt;%3CmxGraphModel%3E%3Croot%3E%3CmxCell%20id%3D%220%22%2F%3E%3CmxCell%20id%3D%221%22%20parent%3D%220%22%2F%3E%3CmxCell%20id%3D%222%22%20value%3D%22(0%2CN)%22%20style%3D%22text%3Bhtml%3D1%3Balign%3Dcenter%3BverticalAlign%3Dmiddle%3BwhiteSpace%3Dwrap%3Brounded%3D0%3BfontFamily%3DHelvetica%3BfontSize%3D11%3BfontColor%3Ddefault%3BlabelBackgroundColor%3Ddefault%3B%22%20vertex%3D%221%22%20parent%3D%221%22%3E%3CmxGeometry%20x%3D%22435%22%20y%3D%22401%22%20width%3D%2260%22%20height%3D%2230%22%20as%3D%22geometry%22%2F%3E%3C%2FmxCell%3E%3C%2Froot%3E%3C%2FmxGraphModel%3E&lt;/span&gt;)" style="text;html=1;align=center;verticalAlign=middle;whiteSpace=wrap;rounded=0;fontFamily=Helvetica;fontSize=11;fontColor=default;labelBackgroundColor=default;" parent="1" vertex="1">
                    <mxGeometry x="250" y="209" width="60" height="30" as="geometry"/>
                </mxCell>
                <mxCell id="GuARF0NrUYKqCSSE0C8I-74" style="edgeStyle=orthogonalEdgeStyle;shape=connector;rounded=0;orthogonalLoop=1;jettySize=auto;html=1;exitX=0.75;exitY=1;exitDx=0;exitDy=0;entryX=0;entryY=0.5;entryDx=0;entryDy=0;strokeColor=default;align=center;verticalAlign=middle;fontFamily=Helvetica;fontSize=11;fontColor=default;labelBackgroundColor=default;endArrow=none;endFill=0;" parent="1" source="GuARF0NrUYKqCSSE0C8I-77" target="GuARF0NrUYKqCSSE0C8I-80" edge="1">
                    <mxGeometry relative="1" as="geometry"/>
                </mxCell>
                <mxCell id="GuARF0NrUYKqCSSE0C8I-75" style="edgeStyle=orthogonalEdgeStyle;shape=connector;rounded=0;orthogonalLoop=1;jettySize=auto;html=1;exitX=0.75;exitY=1;exitDx=0;exitDy=0;entryX=0;entryY=0.5;entryDx=0;entryDy=0;strokeColor=default;align=center;verticalAlign=middle;fontFamily=Helvetica;fontSize=11;fontColor=default;labelBackgroundColor=default;endArrow=none;endFill=0;" parent="1" source="GuARF0NrUYKqCSSE0C8I-77" target="GuARF0NrUYKqCSSE0C8I-81" edge="1">
                    <mxGeometry relative="1" as="geometry"/>
                </mxCell>
                <mxCell id="GuARF0NrUYKqCSSE0C8I-76" style="edgeStyle=orthogonalEdgeStyle;shape=connector;rounded=0;orthogonalLoop=1;jettySize=auto;html=1;exitX=0.75;exitY=1;exitDx=0;exitDy=0;entryX=0;entryY=0.5;entryDx=0;entryDy=0;strokeColor=default;align=center;verticalAlign=middle;fontFamily=Helvetica;fontSize=11;fontColor=default;labelBackgroundColor=default;endArrow=none;endFill=0;" parent="1" source="GuARF0NrUYKqCSSE0C8I-77" target="GuARF0NrUYKqCSSE0C8I-82" edge="1">
                    <mxGeometry relative="1" as="geometry"/>
                </mxCell>
                <mxCell id="GuARF0NrUYKqCSSE0C8I-85" style="edgeStyle=orthogonalEdgeStyle;shape=connector;rounded=0;orthogonalLoop=1;jettySize=auto;html=1;exitX=0.75;exitY=1;exitDx=0;exitDy=0;entryX=0;entryY=0.5;entryDx=0;entryDy=0;strokeColor=default;align=center;verticalAlign=middle;fontFamily=Helvetica;fontSize=11;fontColor=default;labelBackgroundColor=default;endArrow=none;endFill=0;" parent="1" source="GuARF0NrUYKqCSSE0C8I-77" target="GuARF0NrUYKqCSSE0C8I-84" edge="1">
                    <mxGeometry relative="1" as="geometry"/>
                </mxCell>
                <mxCell id="GuARF0NrUYKqCSSE0C8I-90" style="edgeStyle=orthogonalEdgeStyle;shape=connector;rounded=0;orthogonalLoop=1;jettySize=auto;html=1;exitX=1;exitY=0.5;exitDx=0;exitDy=0;entryX=0;entryY=0.5;entryDx=0;entryDy=0;strokeColor=default;align=center;verticalAlign=middle;fontFamily=Helvetica;fontSize=11;fontColor=default;labelBackgroundColor=default;endArrow=none;endFill=0;" parent="1" source="GuARF0NrUYKqCSSE0C8I-77" target="GuARF0NrUYKqCSSE0C8I-87" edge="1">
                    <mxGeometry relative="1" as="geometry"/>
                </mxCell>
                <mxCell id="GuARF0NrUYKqCSSE0C8I-77" value="RECURSO" style="rounded=0;whiteSpace=wrap;html=1;" parent="1" vertex="1">
                    <mxGeometry x="30" y="565" width="120" height="60" as="geometry"/>
                </mxCell>
                <mxCell id="GuARF0NrUYKqCSSE0C8I-78" style="edgeStyle=orthogonalEdgeStyle;shape=connector;rounded=0;orthogonalLoop=1;jettySize=auto;html=1;exitX=0;exitY=0.5;exitDx=0;exitDy=0;entryX=0.75;entryY=1;entryDx=0;entryDy=0;strokeColor=default;align=center;verticalAlign=middle;fontFamily=Helvetica;fontSize=11;fontColor=default;labelBackgroundColor=default;endArrow=none;endFill=0;" parent="1" source="GuARF0NrUYKqCSSE0C8I-79" target="GuARF0NrUYKqCSSE0C8I-77" edge="1">
                    <mxGeometry relative="1" as="geometry"/>
                </mxCell>
                <mxCell id="GuARF0NrUYKqCSSE0C8I-79" value="NombreRec" style="text;html=1;align=center;verticalAlign=middle;whiteSpace=wrap;rounded=0;" parent="1" vertex="1">
                    <mxGeometry x="140" y="631" width="76" height="30" as="geometry"/>
                </mxCell>
                <mxCell id="GuARF0NrUYKqCSSE0C8I-80" value="&lt;u&gt;IdRecurso&lt;/u&gt;" style="text;html=1;align=center;verticalAlign=middle;whiteSpace=wrap;rounded=0;" parent="1" vertex="1">
                    <mxGeometry x="140" y="651" width="70" height="30" as="geometry"/>
                </mxCell>
                <mxCell id="GuARF0NrUYKqCSSE0C8I-81" value="Tipo" style="text;html=1;align=center;verticalAlign=middle;whiteSpace=wrap;rounded=0;" parent="1" vertex="1">
                    <mxGeometry x="140" y="671" width="40" height="30" as="geometry"/>
                </mxCell>
                <mxCell id="GuARF0NrUYKqCSSE0C8I-82" value="CantXRonda" style="text;html=1;align=center;verticalAlign=middle;whiteSpace=wrap;rounded=0;" parent="1" vertex="1">
                    <mxGeometry x="140" y="691" width="90" height="30" as="geometry"/>
                </mxCell>
                <mxCell id="GuARF0NrUYKqCSSE0C8I-84" value="Reglas*" style="text;html=1;align=center;verticalAlign=middle;whiteSpace=wrap;rounded=0;" parent="1" vertex="1">
                    <mxGeometry x="140" y="711" width="60" height="30" as="geometry"/>
                </mxCell>
                <mxCell id="GuARF0NrUYKqCSSE0C8I-87" value="tiene" style="rhombus;whiteSpace=wrap;html=1;rounded=0;" parent="1" vertex="1">
                    <mxGeometry x="225" y="555" width="80" height="80" as="geometry"/>
                </mxCell>
                <mxCell id="GuARF0NrUYKqCSSE0C8I-91" value="(2,2)" style="text;html=1;align=center;verticalAlign=middle;whiteSpace=wrap;rounded=0;fontFamily=Helvetica;fontSize=11;fontColor=default;labelBackgroundColor=default;" parent="1" vertex="1">
                    <mxGeometry x="148" y="565" width="60" height="30" as="geometry"/>
                </mxCell>
                <mxCell id="GuARF0NrUYKqCSSE0C8I-92" value="(0,N)" style="text;html=1;align=center;verticalAlign=middle;whiteSpace=wrap;rounded=0;fontFamily=Helvetica;fontSize=11;fontColor=default;labelBackgroundColor=default;" parent="1" vertex="1">
                    <mxGeometry x="315" y="565" width="60" height="30" as="geometry"/>
                </mxCell>
                <mxCell id="CNnA7Gmpr0wEHoK6A7KQ-132" value="" style="edgeStyle=orthogonalEdgeStyle;shape=connector;rounded=0;orthogonalLoop=1;jettySize=auto;html=1;strokeColor=default;align=center;verticalAlign=middle;fontFamily=Helvetica;fontSize=11;fontColor=default;labelBackgroundColor=default;endArrow=none;endFill=0;" parent="1" source="CNnA7Gmpr0wEHoK6A7KQ-4" target="CNnA7Gmpr0wEHoK6A7KQ-131" edge="1">
                    <mxGeometry relative="1" as="geometry"/>
                </mxCell>
                <mxCell id="CNnA7Gmpr0wEHoK6A7KQ-178" style="edgeStyle=orthogonalEdgeStyle;shape=connector;rounded=0;orthogonalLoop=1;jettySize=auto;html=1;exitX=0.75;exitY=1;exitDx=0;exitDy=0;entryX=0;entryY=0.5;entryDx=0;entryDy=0;strokeColor=default;align=center;verticalAlign=middle;fontFamily=Helvetica;fontSize=11;fontColor=default;labelBackgroundColor=default;endArrow=none;endFill=0;" parent="1" source="CNnA7Gmpr0wEHoK6A7KQ-4" target="CNnA7Gmpr0wEHoK6A7KQ-177" edge="1">
                    <mxGeometry relative="1" as="geometry"/>
                </mxCell>
                <mxCell id="CNnA7Gmpr0wEHoK6A7KQ-4" value="CONSTRUCCION" style="rounded=0;whiteSpace=wrap;html=1;" parent="1" vertex="1">
                    <mxGeometry x="375" y="911" width="120" height="60" as="geometry"/>
                </mxCell>
                <mxCell id="CNnA7Gmpr0wEHoK6A7KQ-5" style="edgeStyle=orthogonalEdgeStyle;shape=connector;rounded=0;orthogonalLoop=1;jettySize=auto;html=1;exitX=0;exitY=0.5;exitDx=0;exitDy=0;entryX=0.75;entryY=1;entryDx=0;entryDy=0;strokeColor=default;align=center;verticalAlign=middle;fontFamily=Helvetica;fontSize=11;fontColor=default;labelBackgroundColor=default;endArrow=none;endFill=0;" parent="1" source="CNnA7Gmpr0wEHoK6A7KQ-6" target="CNnA7Gmpr0wEHoK6A7KQ-4" edge="1">
                    <mxGeometry relative="1" as="geometry"/>
                </mxCell>
                <mxCell id="CNnA7Gmpr0wEHoK6A7KQ-6" value="&lt;u&gt;IdConstruccion&lt;/u&gt;" style="text;html=1;align=center;verticalAlign=middle;whiteSpace=wrap;rounded=0;" parent="1" vertex="1">
                    <mxGeometry x="485" y="979" width="95" height="30" as="geometry"/>
                </mxCell>
                <mxCell id="CNnA7Gmpr0wEHoK6A7KQ-10" value="(0,N)" style="text;html=1;align=center;verticalAlign=middle;whiteSpace=wrap;rounded=0;fontFamily=Helvetica;fontSize=11;fontColor=default;labelBackgroundColor=default;" parent="1" vertex="1">
                    <mxGeometry x="377" y="871" width="60" height="30" as="geometry"/>
                </mxCell>
                <mxCell id="CNnA7Gmpr0wEHoK6A7KQ-60" value="" style="rhombus;whiteSpace=wrap;html=1;rounded=0;fillColor=none;" parent="1" vertex="1">
                    <mxGeometry x="215" y="545" width="100" height="100" as="geometry"/>
                </mxCell>
                <mxCell id="CNnA7Gmpr0wEHoK6A7KQ-64" style="edgeStyle=orthogonalEdgeStyle;shape=connector;rounded=0;orthogonalLoop=1;jettySize=auto;html=1;exitX=0.5;exitY=1;exitDx=0;exitDy=0;entryX=0.5;entryY=0;entryDx=0;entryDy=0;strokeColor=default;align=center;verticalAlign=middle;fontFamily=Helvetica;fontSize=11;fontColor=default;labelBackgroundColor=default;endArrow=none;endFill=0;" parent="1" source="CNnA7Gmpr0wEHoK6A7KQ-62" target="CNnA7Gmpr0wEHoK6A7KQ-4" edge="1">
                    <mxGeometry relative="1" as="geometry"/>
                </mxCell>
                <mxCell id="CNnA7Gmpr0wEHoK6A7KQ-65" style="edgeStyle=orthogonalEdgeStyle;shape=connector;rounded=0;orthogonalLoop=1;jettySize=auto;html=1;exitX=0.5;exitY=0;exitDx=0;exitDy=0;entryX=0.5;entryY=1;entryDx=0;entryDy=0;strokeColor=default;align=center;verticalAlign=middle;fontFamily=Helvetica;fontSize=11;fontColor=default;labelBackgroundColor=default;endArrow=none;endFill=0;" parent="1" source="CNnA7Gmpr0wEHoK6A7KQ-62" target="GuARF0NrUYKqCSSE0C8I-38" edge="1">
                    <mxGeometry relative="1" as="geometry"/>
                </mxCell>
                <mxCell id="CNnA7Gmpr0wEHoK6A7KQ-62" value="adquiere" style="rhombus;whiteSpace=wrap;html=1;fontFamily=Helvetica;fontSize=11;fontColor=default;labelBackgroundColor=default;" parent="1" vertex="1">
                    <mxGeometry x="395" y="770" width="80" height="80" as="geometry"/>
                </mxCell>
                <mxCell id="CNnA7Gmpr0wEHoK6A7KQ-90" value="" style="edgeStyle=orthogonalEdgeStyle;shape=connector;rounded=0;orthogonalLoop=1;jettySize=auto;html=1;strokeColor=default;align=center;verticalAlign=middle;fontFamily=Helvetica;fontSize=11;fontColor=default;labelBackgroundColor=default;endArrow=none;endFill=0;" parent="1" source="CNnA7Gmpr0wEHoK6A7KQ-69" target="CNnA7Gmpr0wEHoK6A7KQ-89" edge="1">
                    <mxGeometry relative="1" as="geometry"/>
                </mxCell>
                <mxCell id="CNnA7Gmpr0wEHoK6A7KQ-93" value="" style="edgeStyle=orthogonalEdgeStyle;shape=connector;rounded=0;orthogonalLoop=1;jettySize=auto;html=1;strokeColor=default;align=center;verticalAlign=middle;fontFamily=Helvetica;fontSize=11;fontColor=default;labelBackgroundColor=default;endArrow=none;endFill=0;" parent="1" source="CNnA7Gmpr0wEHoK6A7KQ-69" target="CNnA7Gmpr0wEHoK6A7KQ-92" edge="1">
                    <mxGeometry relative="1" as="geometry"/>
                </mxCell>
                <mxCell id="CNnA7Gmpr0wEHoK6A7KQ-69" value="TRUEQUE" style="rounded=0;whiteSpace=wrap;html=1;" parent="1" vertex="1">
                    <mxGeometry x="781" y="565" width="120" height="60" as="geometry"/>
                </mxCell>
                <mxCell id="CNnA7Gmpr0wEHoK6A7KQ-70" style="edgeStyle=orthogonalEdgeStyle;shape=connector;rounded=0;orthogonalLoop=1;jettySize=auto;html=1;exitX=0;exitY=0.5;exitDx=0;exitDy=0;entryX=0.75;entryY=1;entryDx=0;entryDy=0;strokeColor=default;align=center;verticalAlign=middle;fontFamily=Helvetica;fontSize=11;fontColor=default;labelBackgroundColor=default;endArrow=none;endFill=0;" parent="1" source="CNnA7Gmpr0wEHoK6A7KQ-71" target="CNnA7Gmpr0wEHoK6A7KQ-69" edge="1">
                    <mxGeometry relative="1" as="geometry"/>
                </mxCell>
                <mxCell id="CNnA7Gmpr0wEHoK6A7KQ-71" value="&lt;u&gt;IdTruque&lt;/u&gt;" style="text;html=1;align=center;verticalAlign=middle;whiteSpace=wrap;rounded=0;" parent="1" vertex="1">
                    <mxGeometry x="891" y="626" width="76" height="30" as="geometry"/>
                </mxCell>
                <mxCell id="CNnA7Gmpr0wEHoK6A7KQ-78" value="" style="rhombus;whiteSpace=wrap;html=1;rounded=0;fillColor=none;" parent="1" vertex="1">
                    <mxGeometry x="385" y="760" width="100" height="100" as="geometry"/>
                </mxCell>
                <mxCell id="CNnA7Gmpr0wEHoK6A7KQ-82" style="edgeStyle=orthogonalEdgeStyle;shape=connector;rounded=0;orthogonalLoop=1;jettySize=auto;html=1;exitX=1;exitY=0.5;exitDx=0;exitDy=0;entryX=0;entryY=0.5;entryDx=0;entryDy=0;strokeColor=default;align=center;verticalAlign=middle;fontFamily=Helvetica;fontSize=11;fontColor=default;labelBackgroundColor=default;endArrow=none;endFill=0;" parent="1" source="CNnA7Gmpr0wEHoK6A7KQ-80" target="CNnA7Gmpr0wEHoK6A7KQ-4" edge="1">
                    <mxGeometry relative="1" as="geometry"/>
                </mxCell>
                <mxCell id="CNnA7Gmpr0wEHoK6A7KQ-84" style="edgeStyle=orthogonalEdgeStyle;shape=connector;rounded=0;orthogonalLoop=1;jettySize=auto;html=1;exitX=0.5;exitY=0;exitDx=0;exitDy=0;entryX=0.5;entryY=1;entryDx=0;entryDy=0;strokeColor=default;align=center;verticalAlign=middle;fontFamily=Helvetica;fontSize=11;fontColor=default;labelBackgroundColor=default;endArrow=none;endFill=0;" parent="1" source="CNnA7Gmpr0wEHoK6A7KQ-80" target="GuARF0NrUYKqCSSE0C8I-77" edge="1">
                    <mxGeometry relative="1" as="geometry"/>
                </mxCell>
                <mxCell id="CNnA7Gmpr0wEHoK6A7KQ-80" value="gasta" style="rhombus;whiteSpace=wrap;html=1;fontFamily=Helvetica;fontSize=11;fontColor=default;labelBackgroundColor=default;" parent="1" vertex="1">
                    <mxGeometry x="50" y="901" width="80" height="80" as="geometry"/>
                </mxCell>
                <mxCell id="CNnA7Gmpr0wEHoK6A7KQ-89" value="involucra" style="rhombus;whiteSpace=wrap;html=1;rounded=0;" parent="1" vertex="1">
                    <mxGeometry x="601" y="555" width="80" height="80" as="geometry"/>
                </mxCell>
                <mxCell id="CNnA7Gmpr0wEHoK6A7KQ-94" style="edgeStyle=orthogonalEdgeStyle;shape=connector;rounded=0;orthogonalLoop=1;jettySize=auto;html=1;exitX=0.5;exitY=0;exitDx=0;exitDy=0;entryX=0.25;entryY=1;entryDx=0;entryDy=0;strokeColor=default;align=center;verticalAlign=middle;fontFamily=Helvetica;fontSize=11;fontColor=default;labelBackgroundColor=default;endArrow=none;endFill=0;" parent="1" source="CNnA7Gmpr0wEHoK6A7KQ-118" target="GuARF0NrUYKqCSSE0C8I-77" edge="1">
                    <mxGeometry relative="1" as="geometry">
                        <Array as="points"/>
                    </mxGeometry>
                </mxCell>
                <mxCell id="CNnA7Gmpr0wEHoK6A7KQ-92" value="incluye" style="rhombus;whiteSpace=wrap;html=1;rounded=0;" parent="1" vertex="1">
                    <mxGeometry x="801" y="710" width="80" height="80" as="geometry"/>
                </mxCell>
                <mxCell id="CNnA7Gmpr0wEHoK6A7KQ-97" style="edgeStyle=orthogonalEdgeStyle;shape=connector;rounded=0;orthogonalLoop=1;jettySize=auto;html=1;exitX=0;exitY=0.5;exitDx=0;exitDy=0;entryX=1;entryY=1;entryDx=0;entryDy=0;strokeColor=default;align=center;verticalAlign=middle;fontFamily=Helvetica;fontSize=11;fontColor=default;labelBackgroundColor=default;endArrow=none;endFill=0;" parent="1" source="CNnA7Gmpr0wEHoK6A7KQ-95" target="CNnA7Gmpr0wEHoK6A7KQ-92" edge="1">
                    <mxGeometry relative="1" as="geometry"/>
                </mxCell>
                <mxCell id="CNnA7Gmpr0wEHoK6A7KQ-95" value="CantidadRecursos" style="text;html=1;align=center;verticalAlign=middle;whiteSpace=wrap;rounded=0;" parent="1" vertex="1">
                    <mxGeometry x="871.25" y="770" width="115.5" height="30" as="geometry"/>
                </mxCell>
                <mxCell id="CNnA7Gmpr0wEHoK6A7KQ-100" style="edgeStyle=orthogonalEdgeStyle;shape=connector;rounded=0;orthogonalLoop=1;jettySize=auto;html=1;exitX=1;exitY=0.5;exitDx=0;exitDy=0;entryX=0;entryY=0.75;entryDx=0;entryDy=0;strokeColor=default;align=center;verticalAlign=middle;fontFamily=Helvetica;fontSize=11;fontColor=default;labelBackgroundColor=default;endArrow=none;endFill=0;" parent="1" source="CNnA7Gmpr0wEHoK6A7KQ-99" target="CNnA7Gmpr0wEHoK6A7KQ-4" edge="1">
                    <mxGeometry relative="1" as="geometry"/>
                </mxCell>
                <mxCell id="CNnA7Gmpr0wEHoK6A7KQ-123" style="edgeStyle=orthogonalEdgeStyle;shape=connector;rounded=0;orthogonalLoop=1;jettySize=auto;html=1;exitX=0;exitY=0.5;exitDx=0;exitDy=0;entryX=0;entryY=0.75;entryDx=0;entryDy=0;strokeColor=default;align=center;verticalAlign=middle;fontFamily=Helvetica;fontSize=11;fontColor=default;labelBackgroundColor=default;endArrow=none;endFill=0;" parent="1" source="CNnA7Gmpr0wEHoK6A7KQ-99" target="GuARF0NrUYKqCSSE0C8I-77" edge="1">
                    <mxGeometry relative="1" as="geometry"/>
                </mxCell>
                <mxCell id="CNnA7Gmpr0wEHoK6A7KQ-99" value="consume" style="rhombus;whiteSpace=wrap;html=1;fontFamily=Helvetica;fontSize=11;fontColor=default;labelBackgroundColor=default;" parent="1" vertex="1">
                    <mxGeometry x="50" y="1000" width="80" height="80" as="geometry"/>
                </mxCell>
                <mxCell id="CNnA7Gmpr0wEHoK6A7KQ-112" value="(1,1)" style="text;html=1;align=center;verticalAlign=middle;whiteSpace=wrap;rounded=0;fontFamily=Helvetica;fontSize=11;fontColor=default;labelBackgroundColor=default;" parent="1" vertex="1">
                    <mxGeometry x="375" y="625" width="60" height="30" as="geometry"/>
                </mxCell>
                <mxCell id="CNnA7Gmpr0wEHoK6A7KQ-114" value="(1,N)" style="text;html=1;align=center;verticalAlign=middle;whiteSpace=wrap;rounded=0;fontFamily=Helvetica;fontSize=11;fontColor=default;labelBackgroundColor=default;" parent="1" vertex="1">
                    <mxGeometry x="497" y="565" width="60" height="30" as="geometry"/>
                </mxCell>
                <mxCell id="CNnA7Gmpr0wEHoK6A7KQ-115" value="(1,N)" style="text;html=1;align=center;verticalAlign=middle;whiteSpace=wrap;rounded=0;fontFamily=Helvetica;fontSize=11;fontColor=default;labelBackgroundColor=default;" parent="1" vertex="1">
                    <mxGeometry x="723" y="565" width="60" height="30" as="geometry"/>
                </mxCell>
                <mxCell id="CNnA7Gmpr0wEHoK6A7KQ-116" value="(0,N)" style="text;html=1;align=center;verticalAlign=middle;whiteSpace=wrap;rounded=0;fontFamily=Helvetica;fontSize=11;fontColor=default;labelBackgroundColor=default;" parent="1" vertex="1">
                    <mxGeometry x="790" y="626" width="60" height="30" as="geometry"/>
                </mxCell>
                <mxCell id="CNnA7Gmpr0wEHoK6A7KQ-119" value="" style="edgeStyle=orthogonalEdgeStyle;shape=connector;rounded=0;orthogonalLoop=1;jettySize=auto;html=1;exitX=0;exitY=0.5;exitDx=0;exitDy=0;entryX=0.5;entryY=1;entryDx=0;entryDy=0;strokeColor=default;align=center;verticalAlign=middle;fontFamily=Helvetica;fontSize=11;fontColor=default;labelBackgroundColor=default;endArrow=none;endFill=0;" parent="1" source="CNnA7Gmpr0wEHoK6A7KQ-92" target="CNnA7Gmpr0wEHoK6A7KQ-118" edge="1">
                    <mxGeometry relative="1" as="geometry">
                        <mxPoint x="801" y="749" as="sourcePoint"/>
                        <mxPoint x="60" y="625" as="targetPoint"/>
                        <Array as="points">
                            <mxPoint x="60" y="750"/>
                        </Array>
                    </mxGeometry>
                </mxCell>
                <mxCell id="CNnA7Gmpr0wEHoK6A7KQ-118" value="(1,N)" style="text;html=1;align=center;verticalAlign=middle;whiteSpace=wrap;rounded=0;fontFamily=Helvetica;fontSize=11;fontColor=default;labelBackgroundColor=default;" parent="1" vertex="1">
                    <mxGeometry x="30" y="655" width="60" height="30" as="geometry"/>
                </mxCell>
                <mxCell id="CNnA7Gmpr0wEHoK6A7KQ-121" value="(1,N)" style="text;html=1;align=center;verticalAlign=middle;whiteSpace=wrap;rounded=0;fontFamily=Helvetica;fontSize=11;fontColor=default;labelBackgroundColor=default;" parent="1" vertex="1">
                    <mxGeometry x="310" y="911" width="60" height="30" as="geometry"/>
                </mxCell>
                <mxCell id="CNnA7Gmpr0wEHoK6A7KQ-122" value="(1,N)" style="text;html=1;align=center;verticalAlign=middle;whiteSpace=wrap;rounded=0;fontFamily=Helvetica;fontSize=11;fontColor=default;labelBackgroundColor=default;" parent="1" vertex="1">
                    <mxGeometry x="60" y="636" width="60" height="30" as="geometry"/>
                </mxCell>
                <mxCell id="CNnA7Gmpr0wEHoK6A7KQ-124" value="(0,N)" style="text;html=1;align=center;verticalAlign=middle;whiteSpace=wrap;rounded=0;fontFamily=Helvetica;fontSize=11;fontColor=default;labelBackgroundColor=default;" parent="1" vertex="1">
                    <mxGeometry x="315" y="953" width="60" height="30" as="geometry"/>
                </mxCell>
                <mxCell id="CNnA7Gmpr0wEHoK6A7KQ-125" value="(1,N)" style="text;html=1;align=center;verticalAlign=middle;whiteSpace=wrap;rounded=0;fontFamily=Helvetica;fontSize=11;fontColor=default;labelBackgroundColor=default;" parent="1" vertex="1">
                    <mxGeometry x="-30" y="579" width="60" height="30" as="geometry"/>
                </mxCell>
                <mxCell id="CNnA7Gmpr0wEHoK6A7KQ-127" style="edgeStyle=orthogonalEdgeStyle;shape=connector;rounded=0;orthogonalLoop=1;jettySize=auto;html=1;exitX=0;exitY=0.5;exitDx=0;exitDy=0;entryX=1;entryY=1;entryDx=0;entryDy=0;strokeColor=default;align=center;verticalAlign=middle;fontFamily=Helvetica;fontSize=11;fontColor=default;labelBackgroundColor=default;endArrow=none;endFill=0;" parent="1" source="CNnA7Gmpr0wEHoK6A7KQ-126" target="CNnA7Gmpr0wEHoK6A7KQ-80" edge="1">
                    <mxGeometry relative="1" as="geometry"/>
                </mxCell>
                <mxCell id="CNnA7Gmpr0wEHoK6A7KQ-126" value="CantidadGasto" style="text;html=1;align=center;verticalAlign=middle;whiteSpace=wrap;rounded=0;fontFamily=Helvetica;fontSize=11;fontColor=default;labelBackgroundColor=default;" parent="1" vertex="1">
                    <mxGeometry x="123" y="960" width="80" height="30" as="geometry"/>
                </mxCell>
                <mxCell id="CNnA7Gmpr0wEHoK6A7KQ-130" style="edgeStyle=orthogonalEdgeStyle;shape=connector;rounded=0;orthogonalLoop=1;jettySize=auto;html=1;exitX=0;exitY=0.5;exitDx=0;exitDy=0;entryX=1;entryY=1;entryDx=0;entryDy=0;strokeColor=default;align=center;verticalAlign=middle;fontFamily=Helvetica;fontSize=11;fontColor=default;labelBackgroundColor=default;endArrow=none;endFill=0;" parent="1" source="CNnA7Gmpr0wEHoK6A7KQ-128" target="CNnA7Gmpr0wEHoK6A7KQ-99" edge="1">
                    <mxGeometry relative="1" as="geometry"/>
                </mxCell>
                <mxCell id="CNnA7Gmpr0wEHoK6A7KQ-128" value="CantidadConsumo" style="text;html=1;align=center;verticalAlign=middle;whiteSpace=wrap;rounded=0;fontFamily=Helvetica;fontSize=11;fontColor=default;labelBackgroundColor=default;" parent="1" vertex="1">
                    <mxGeometry x="123" y="1050" width="110" height="30" as="geometry"/>
                </mxCell>
                <mxCell id="CNnA7Gmpr0wEHoK6A7KQ-162" style="edgeStyle=orthogonalEdgeStyle;shape=connector;rounded=0;orthogonalLoop=1;jettySize=auto;html=1;exitX=0;exitY=0.5;exitDx=0;exitDy=0;entryX=0.5;entryY=0;entryDx=0;entryDy=0;strokeColor=default;align=center;verticalAlign=middle;fontFamily=Helvetica;fontSize=11;fontColor=default;labelBackgroundColor=default;endArrow=none;endFill=0;" parent="1" source="CNnA7Gmpr0wEHoK6A7KQ-131" target="CNnA7Gmpr0wEHoK6A7KQ-161" edge="1">
                    <mxGeometry relative="1" as="geometry"/>
                </mxCell>
                <mxCell id="CNnA7Gmpr0wEHoK6A7KQ-131" value="" style="triangle;whiteSpace=wrap;html=1;rounded=0;rotation=-90;" parent="1" vertex="1">
                    <mxGeometry x="405" y="1020" width="60" height="80" as="geometry"/>
                </mxCell>
                <mxCell id="CNnA7Gmpr0wEHoK6A7KQ-167" value="" style="edgeStyle=orthogonalEdgeStyle;shape=connector;rounded=0;orthogonalLoop=1;jettySize=auto;html=1;strokeColor=default;align=center;verticalAlign=middle;fontFamily=Helvetica;fontSize=11;fontColor=default;labelBackgroundColor=default;endArrow=none;endFill=0;" parent="1" source="CNnA7Gmpr0wEHoK6A7KQ-135" target="CNnA7Gmpr0wEHoK6A7KQ-166" edge="1">
                    <mxGeometry relative="1" as="geometry"/>
                </mxCell>
                <mxCell id="CNnA7Gmpr0wEHoK6A7KQ-135" value="TRANSPORTE" style="rounded=0;whiteSpace=wrap;html=1;" parent="1" vertex="1">
                    <mxGeometry x="1230" y="590" width="120" height="60" as="geometry"/>
                </mxCell>
                <mxCell id="CNnA7Gmpr0wEHoK6A7KQ-137" style="edgeStyle=orthogonalEdgeStyle;shape=connector;rounded=0;orthogonalLoop=1;jettySize=auto;html=1;exitX=0;exitY=0.5;exitDx=0;exitDy=0;entryX=0.75;entryY=1;entryDx=0;entryDy=0;strokeColor=default;align=center;verticalAlign=middle;fontFamily=Helvetica;fontSize=11;fontColor=default;labelBackgroundColor=default;endArrow=none;endFill=0;" parent="1" source="CNnA7Gmpr0wEHoK6A7KQ-136" target="CNnA7Gmpr0wEHoK6A7KQ-135" edge="1">
                    <mxGeometry relative="1" as="geometry"/>
                </mxCell>
                <mxCell id="CNnA7Gmpr0wEHoK6A7KQ-136" value="&lt;u&gt;IdTransporte&lt;/u&gt;" style="text;html=1;align=center;verticalAlign=middle;whiteSpace=wrap;rounded=0;" parent="1" vertex="1">
                    <mxGeometry x="1343.5" y="650" width="73.5" height="30" as="geometry"/>
                </mxCell>
                <mxCell id="CNnA7Gmpr0wEHoK6A7KQ-143" style="edgeStyle=orthogonalEdgeStyle;shape=connector;rounded=0;orthogonalLoop=1;jettySize=auto;html=1;exitX=0;exitY=0.5;exitDx=0;exitDy=0;strokeColor=default;align=center;verticalAlign=middle;fontFamily=Helvetica;fontSize=11;fontColor=default;labelBackgroundColor=default;endArrow=none;endFill=0;" parent="1" source="CNnA7Gmpr0wEHoK6A7KQ-141" edge="1">
                    <mxGeometry relative="1" as="geometry">
                        <mxPoint x="1320" y="649" as="targetPoint"/>
                    </mxGeometry>
                </mxCell>
                <mxCell id="CNnA7Gmpr0wEHoK6A7KQ-141" value="tipo" style="text;html=1;align=center;verticalAlign=middle;whiteSpace=wrap;rounded=0;" parent="1" vertex="1">
                    <mxGeometry x="1343.5" y="680" width="36.5" height="30" as="geometry"/>
                </mxCell>
                <mxCell id="CNnA7Gmpr0wEHoK6A7KQ-144" style="edgeStyle=orthogonalEdgeStyle;shape=connector;rounded=0;orthogonalLoop=1;jettySize=auto;html=1;exitX=0;exitY=0.5;exitDx=0;exitDy=0;strokeColor=default;align=center;verticalAlign=middle;fontFamily=Helvetica;fontSize=11;fontColor=default;labelBackgroundColor=default;endArrow=none;endFill=0;" parent="1" source="CNnA7Gmpr0wEHoK6A7KQ-142" edge="1">
                    <mxGeometry relative="1" as="geometry">
                        <mxPoint x="1320" y="649" as="targetPoint"/>
                    </mxGeometry>
                </mxCell>
                <mxCell id="CNnA7Gmpr0wEHoK6A7KQ-142" value="Capacidad" style="text;html=1;align=center;verticalAlign=middle;whiteSpace=wrap;rounded=0;" parent="1" vertex="1">
                    <mxGeometry x="1343.5" y="710" width="76.5" height="30" as="geometry"/>
                </mxCell>
                <mxCell id="CNnA7Gmpr0wEHoK6A7KQ-147" value="" style="edgeStyle=orthogonalEdgeStyle;shape=connector;rounded=0;orthogonalLoop=1;jettySize=auto;html=1;strokeColor=default;align=center;verticalAlign=middle;fontFamily=Helvetica;fontSize=11;fontColor=default;labelBackgroundColor=default;endArrow=none;endFill=0;" parent="1" source="CNnA7Gmpr0wEHoK6A7KQ-145" target="CNnA7Gmpr0wEHoK6A7KQ-146" edge="1">
                    <mxGeometry relative="1" as="geometry"/>
                </mxCell>
                <mxCell id="CNnA7Gmpr0wEHoK6A7KQ-148" value="" style="edgeStyle=orthogonalEdgeStyle;shape=connector;rounded=0;orthogonalLoop=1;jettySize=auto;html=1;strokeColor=default;align=center;verticalAlign=middle;fontFamily=Helvetica;fontSize=11;fontColor=default;labelBackgroundColor=default;endArrow=none;endFill=0;" parent="1" source="CNnA7Gmpr0wEHoK6A7KQ-146" target="CNnA7Gmpr0wEHoK6A7KQ-135" edge="1">
                    <mxGeometry relative="1" as="geometry"/>
                </mxCell>
                <mxCell id="CNnA7Gmpr0wEHoK6A7KQ-146" value="Traslado" style="rhombus;whiteSpace=wrap;html=1;fontSize=11;fillColor=none;rounded=0;labelBackgroundColor=default;shadow=1;" parent="1" vertex="1">
                    <mxGeometry x="1070" y="580" width="80" height="80" as="geometry"/>
                </mxCell>
                <mxCell id="CNnA7Gmpr0wEHoK6A7KQ-150" style="edgeStyle=orthogonalEdgeStyle;shape=connector;rounded=0;orthogonalLoop=1;jettySize=auto;html=1;exitX=0;exitY=0.5;exitDx=0;exitDy=0;entryX=1;entryY=1;entryDx=0;entryDy=0;strokeColor=default;align=center;verticalAlign=middle;fontFamily=Helvetica;fontSize=11;fontColor=default;labelBackgroundColor=default;endArrow=none;endFill=0;" parent="1" source="CNnA7Gmpr0wEHoK6A7KQ-149" target="CNnA7Gmpr0wEHoK6A7KQ-146" edge="1">
                    <mxGeometry relative="1" as="geometry"/>
                </mxCell>
                <mxCell id="CNnA7Gmpr0wEHoK6A7KQ-149" value="Responsable" style="text;html=1;align=center;verticalAlign=middle;whiteSpace=wrap;rounded=0;" parent="1" vertex="1">
                    <mxGeometry x="1140" y="636" width="76.5" height="30" as="geometry"/>
                </mxCell>
                <mxCell id="CNnA7Gmpr0wEHoK6A7KQ-151" value="(1,N)" style="text;html=1;align=center;verticalAlign=middle;whiteSpace=wrap;rounded=0;fontFamily=Helvetica;fontSize=11;fontColor=default;labelBackgroundColor=default;" parent="1" vertex="1">
                    <mxGeometry x="1170" y="590" width="60" height="30" as="geometry"/>
                </mxCell>
                <mxCell id="CNnA7Gmpr0wEHoK6A7KQ-152" value="(1,N)" style="text;html=1;align=center;verticalAlign=middle;whiteSpace=wrap;rounded=0;fontFamily=Helvetica;fontSize=11;fontColor=default;labelBackgroundColor=default;" parent="1" vertex="1">
                    <mxGeometry x="970" y="590" width="60" height="30" as="geometry"/>
                </mxCell>
                <mxCell id="CNnA7Gmpr0wEHoK6A7KQ-163" style="edgeStyle=orthogonalEdgeStyle;shape=connector;rounded=0;orthogonalLoop=1;jettySize=auto;html=1;exitX=0.5;exitY=0;exitDx=0;exitDy=0;entryX=0;entryY=0.5;entryDx=0;entryDy=0;strokeColor=default;align=center;verticalAlign=middle;fontFamily=Helvetica;fontSize=11;fontColor=default;labelBackgroundColor=default;endArrow=none;endFill=0;" parent="1" source="CNnA7Gmpr0wEHoK6A7KQ-153" target="CNnA7Gmpr0wEHoK6A7KQ-131" edge="1">
                    <mxGeometry relative="1" as="geometry"/>
                </mxCell>
                <mxCell id="CNnA7Gmpr0wEHoK6A7KQ-153" value="FABRICAS" style="rounded=0;whiteSpace=wrap;html=1;" parent="1" vertex="1">
                    <mxGeometry x="525" y="1130" width="120" height="60" as="geometry"/>
                </mxCell>
                <mxCell id="CNnA7Gmpr0wEHoK6A7KQ-164" style="edgeStyle=orthogonalEdgeStyle;shape=connector;rounded=0;orthogonalLoop=1;jettySize=auto;html=1;exitX=0.5;exitY=0;exitDx=0;exitDy=0;entryX=0;entryY=0.5;entryDx=0;entryDy=0;strokeColor=default;align=center;verticalAlign=middle;fontFamily=Helvetica;fontSize=11;fontColor=default;labelBackgroundColor=default;endArrow=none;endFill=0;" parent="1" source="CNnA7Gmpr0wEHoK6A7KQ-160" target="CNnA7Gmpr0wEHoK6A7KQ-131" edge="1">
                    <mxGeometry relative="1" as="geometry"/>
                </mxCell>
                <mxCell id="CNnA7Gmpr0wEHoK6A7KQ-160" value="PRODUCCION" style="rounded=0;whiteSpace=wrap;html=1;" parent="1" vertex="1">
                    <mxGeometry x="230" y="1130" width="120" height="60" as="geometry"/>
                </mxCell>
                <mxCell id="CNnA7Gmpr0wEHoK6A7KQ-161" value="INFRAESTRUCTURA" style="rounded=0;whiteSpace=wrap;html=1;" parent="1" vertex="1">
                    <mxGeometry x="365" y="1130" width="140" height="60" as="geometry"/>
                </mxCell>
                <mxCell id="CNnA7Gmpr0wEHoK6A7KQ-168" style="edgeStyle=orthogonalEdgeStyle;shape=connector;rounded=0;orthogonalLoop=1;jettySize=auto;html=1;exitX=0.5;exitY=1;exitDx=0;exitDy=0;entryX=1;entryY=0.5;entryDx=0;entryDy=0;strokeColor=default;align=center;verticalAlign=middle;fontFamily=Helvetica;fontSize=11;fontColor=default;labelBackgroundColor=default;endArrow=none;endFill=0;" parent="1" source="CNnA7Gmpr0wEHoK6A7KQ-166" target="CNnA7Gmpr0wEHoK6A7KQ-153" edge="1">
                    <mxGeometry relative="1" as="geometry"/>
                </mxCell>
                <mxCell id="CNnA7Gmpr0wEHoK6A7KQ-166" value="genera" style="rhombus;whiteSpace=wrap;html=1;rounded=0;" parent="1" vertex="1">
                    <mxGeometry x="1250" y="720" width="80" height="80" as="geometry"/>
                </mxCell>
                <mxCell id="CNnA7Gmpr0wEHoK6A7KQ-173" style="edgeStyle=orthogonalEdgeStyle;shape=connector;rounded=0;orthogonalLoop=1;jettySize=auto;html=1;exitX=0;exitY=0.5;exitDx=0;exitDy=0;entryX=0.75;entryY=1;entryDx=0;entryDy=0;strokeColor=default;align=center;verticalAlign=middle;fontFamily=Helvetica;fontSize=11;fontColor=default;labelBackgroundColor=default;endArrow=none;endFill=0;" parent="1" source="CNnA7Gmpr0wEHoK6A7KQ-171" target="CNnA7Gmpr0wEHoK6A7KQ-153" edge="1">
                    <mxGeometry relative="1" as="geometry"/>
                </mxCell>
                <mxCell id="CNnA7Gmpr0wEHoK6A7KQ-171" value="MaxUnidades" style="text;html=1;align=center;verticalAlign=middle;whiteSpace=wrap;rounded=0;" parent="1" vertex="1">
                    <mxGeometry x="628" y="1190" width="95" height="30" as="geometry"/>
                </mxCell>
                <mxCell id="CNnA7Gmpr0wEHoK6A7KQ-176" style="edgeStyle=orthogonalEdgeStyle;shape=connector;rounded=0;orthogonalLoop=1;jettySize=auto;html=1;exitX=0;exitY=0.5;exitDx=0;exitDy=0;entryX=0.75;entryY=1;entryDx=0;entryDy=0;strokeColor=default;align=center;verticalAlign=middle;fontFamily=Helvetica;fontSize=11;fontColor=default;labelBackgroundColor=default;endArrow=none;endFill=0;" parent="1" source="CNnA7Gmpr0wEHoK6A7KQ-174" target="CNnA7Gmpr0wEHoK6A7KQ-160" edge="1">
                    <mxGeometry relative="1" as="geometry"/>
                </mxCell>
                <mxCell id="CNnA7Gmpr0wEHoK6A7KQ-174" value="CantidadPruduccion" style="text;html=1;align=center;verticalAlign=middle;whiteSpace=wrap;rounded=0;" parent="1" vertex="1">
                    <mxGeometry x="330" y="1190" width="120" height="30" as="geometry"/>
                </mxCell>
                <mxCell id="CNnA7Gmpr0wEHoK6A7KQ-177" value="Tipo" style="text;html=1;align=center;verticalAlign=middle;whiteSpace=wrap;rounded=0;" parent="1" vertex="1">
                    <mxGeometry x="485" y="1000" width="35" height="30" as="geometry"/>
                </mxCell>
                <mxCell id="CNnA7Gmpr0wEHoK6A7KQ-179" value="(1,1)" style="text;html=1;align=center;verticalAlign=middle;whiteSpace=wrap;rounded=0;fontFamily=Helvetica;fontSize=11;fontColor=default;labelBackgroundColor=default;" parent="1" vertex="1">
                    <mxGeometry x="645.5" y="1130" width="60" height="30" as="geometry"/>
                </mxCell>
                <mxCell id="CNnA7Gmpr0wEHoK6A7KQ-180" value="(0,N)" style="text;html=1;align=center;verticalAlign=middle;whiteSpace=wrap;rounded=0;fontFamily=Helvetica;fontSize=11;fontColor=default;labelBackgroundColor=default;" parent="1" vertex="1">
                    <mxGeometry x="1230" y="650" width="60" height="30" as="geometry"/>
                </mxCell>
            </root>
        </mxGraphModel>
    </diagram>
</mxfile>